<?xml version="1.0" encoding="utf-8"?>
<svg viewBox="3.65 6.633 46.155 41.337" xmlns="http://www.w3.org/2000/svg">
  <g id="layer1" transform="matrix(1, 0, 0, 1, -67.766205, -2.091548)">
    <path style="fill:#000000;fill-opacity:1;fill-rule:evenodd;stroke:none;stroke-width:0.35277775" d="m 84.066585,15.314287 -1.05833,0.44649 -1.05833,0.44786 -0.34865,1.20992 -0.35002,1.20854 0.70831,0.76205 0.70969,0.76206 1.05833,-0.44649 1.05696,-0.44786 0.35002,-1.20992 0.34864,-1.20991 -0.70831,-0.76068 z m 6.46851,6.34311 -3.18878,0.72761 -0.43959,1.52273 -0.44097,1.52273 1.15617,1.15755 1.15342,1.15756 1.59577,-0.36381 1.59439,-0.3638 0.43959,-1.52273 0.43959,-1.52136 -1.15479,-1.15755 z m -5.73677,-1.53375 -2.40054,0.96462 -0.44097,1.52963 -0.44236,1.52962 0.75793,1.04868 0.75792,1.04731 2.40054,-0.96462 0.8847,-3.05925 -0.7593,-1.04731 z m -4.01147,-0.66284 -0.71383,0.51125 -0.71244,0.51125 -0.38309,1.32568 -0.3831,1.32429 0.66146,1.62609 0.71245,-0.51126 0.71382,-0.51125 0.38309,-1.32567 0.3831,-1.3243 -0.33211,-0.81304 z m 23.665045,6.21633 1.1548,1.15893 1.15479,1.15755 -0.43959,1.52273 -0.44098,1.52136 -1.59439,0.36518 -1.59439,0.3638 -1.15479,-1.15893 -1.1548,-1.15755 0.87919,-3.04547 1.59439,-0.3638 z m 5.66925,1.76251 0.7593,1.04731 0.75792,1.04731 -0.44235,1.531 -0.44235,1.52962 -1.19889,0.48232 -1.20028,0.48093 -0.75929,-1.04731 -0.75793,-1.04731 0.44236,-1.531 0.44097,-1.52824 z m 3.74826,1.57785 0.66146,1.62609 -0.38309,1.32567 -0.3831,1.3243 -0.71244,0.51125 -0.71383,0.51125 -0.32935,-0.81304 -0.33073,-0.81304 0.38172,-1.3243 0.3831,-1.32429 0.71381,-0.51263 z m -16.306315,-5.59345 1.33945,1.27744 1.338075,1.27744 -0.474045,1.644 -0.47542,1.644 -1.8135,0.36656 -1.8135,0.36518 -1.33945,-1.27607 -1.33808,-1.27744 0.47405,-1.644 0.47542,-1.644 z m -11.35779,13.86995 -2.08911,-2.01469 0.37621,-1.30362 0.3762,-1.30225 1.42076,-0.2949 1.42213,-0.29628 1.04456,1.00873 1.04455,1.00734 -0.37758,1.30225 -0.37621,1.30224 -1.42076,0.29628 z m -4.83278,-2.45291 -0.72072,-0.79788 -0.71933,-0.79926 0.62838,-2.18006 1.03629,-0.29076 1.0349,-0.29215 0.72072,0.79926 0.72071,0.79789 -0.31419,1.09003 -0.31557,1.09002 -1.03491,0.29077 z m 18.4037,6.37343 1.419365,-0.29628 1.42214,-0.2949 0.37621,-1.30224 0.3762,-1.30363 -2.08911,-2.01469 -2.841505,0.5898 -0.37758,1.30363 -0.37621,1.30224 1.04455,1.00735 z m 5.395015,0.50161 1.03628,-0.29077 1.03491,-0.29214 0.31557,-1.09003 0.31419,-1.09003 -0.72071,-0.79789 -0.72072,-0.79926 -1.03491,0.29215 -1.03628,0.29076 -0.31419,1.09003 -0.31557,1.09003 0.72071,0.79926 z m -12.241115,-2.25447 1.55305,-0.3142 1.55167,-0.31281 0.81305,-2.81396 -1.14653,-1.09278 -1.14515,-1.09278 -1.55305,0.31419 -1.55167,0.31281 -0.81305,2.81396 1.14653,1.09278 z m 5.02846,-3.59668 1.65089,-0.33487 1.652265,-0.33348 0.43133,-1.49655 0.4327,-1.49655 -1.21956,-1.16307 -1.218185,-1.16306 -1.65227,0.33349 -1.65088,0.33348 -0.43271,1.49793 -0.4327,1.49655 1.21956,1.16168 z m 6.373425,1.64262 1.38079,-0.36243 1.37942,-0.36242 0.40652,-1.4056 0.40653,-1.40422 -0.97566,-1.04318 -0.97427,-1.04179 -1.38079,0.36104 -1.37942,0.36243 -0.40652,1.4056 -0.40515,1.40422 z m 4.79144,0.73174 1.05833,-0.44649 1.05834,-0.44786 0.34864,-1.20992 0.35002,-1.20854 -0.70831,-0.76205 -0.70969,-0.76206 -1.05833,0.44786 -1.05696,0.44649 -0.35002,1.20992 -0.34864,1.20853 0.70693,0.76206 z m -14.710555,6.04269 c 0.49609,-0.091 0.99219,-0.18328 1.49793,-0.27147 0.50987,-0.0868 1.02664,-0.17225 1.54616,-0.25494 0.226,-0.39963 0.45475,-0.79788 0.6835,-1.19476 0.23014,-0.39825 0.45476,-0.79512 0.68489,-1.19338 -0.33349,-0.32797 -0.66559,-0.65457 -1.00872,-0.98667 -0.34589,-0.33211 -0.69591,-0.66422 -1.05283,-0.99908 -0.55397,0.0717 -1.10243,0.14607 -1.64262,0.22324 -0.53743,0.0772 -1.06798,0.1571 -1.59576,0.2384 -0.16261,0.41892 -0.32522,0.83785 -0.48921,1.25815 -0.16261,0.41892 -0.32935,0.83647 -0.49196,1.25677 0.32522,0.32384 0.64355,0.64768 0.95912,0.97014 0.30868,0.31833 0.61184,0.63666 0.9095,0.9536 z m 5.36333,0.19982 c 0.446475,-0.11162 0.898475,-0.22324 1.353225,-0.33487 0.46026,-0.11024 0.92604,-0.22048 1.39457,-0.33072 0.29628,-0.26045 0.59532,-0.52228 0.8916,-0.78135 0.29628,-0.26183 0.59531,-0.52228 0.89159,-0.78273 -0.19982,-0.15434 -0.40239,-0.3073 -0.60359,-0.46164 -0.21359,-0.15434 -0.42581,-0.30868 -0.64078,-0.46302 -0.49196,0.10749 -0.98117,0.21635 -1.46348,0.32384 -0.48231,0.10886 -0.95774,0.21911 -1.42627,0.32797 -0.249415,0.26596 -0.498845,0.53055 -0.749645,0.79651 -0.24942,0.26458 -0.50298,0.52916 -0.74965,0.79513 0.19017,0.15158 0.38171,0.30454 0.56775,0.4575 0.17914,0.15159 0.35829,0.30317 0.53468,0.45338 z m -11.41567,-1.90996 c -0.33624,-0.32935 -0.68351,-0.66146 -1.03215,-0.99495 -0.35691,-0.33486 -0.71796,-0.67248 -1.08452,-1.01147 0.0827,-0.44649 0.16537,-0.8916 0.24529,-1.3367 0.0785,-0.44787 0.15848,-0.89297 0.24116,-1.33808 0.48507,-0.0965 0.97427,-0.19017 1.47312,-0.27974 0.49885,-0.0909 1.00459,-0.17914 1.51722,-0.2632 0.39963,0.34726 0.791,0.69453 1.1796,1.03904 0.38034,0.34451 0.75517,0.68626 1.13,1.02663 -0.15021,0.42444 -0.29215,0.85025 -0.43822,1.27469 -0.1447,0.42444 -0.29077,0.85025 -0.43684,1.27469 -0.4768,0.0965 -0.95222,0.19568 -1.42076,0.29765 -0.46302,0.1006 -0.92053,0.20533 -1.3739,0.31144 z m -4.56544,-2.78226 c -0.28526,-0.32246 -0.5774,-0.65044 -0.86541,-0.97565 -0.29766,-0.33073 -0.59531,-0.66146 -0.89435,-0.99357 -0.0524,-0.35415 -0.0978,-0.70418 -0.1502,-1.05833 -0.051,-0.35416 -0.1006,-0.70556 -0.14883,-1.05833 0.27147,-0.008 0.55121,-0.01 0.83785,-0.008 0.28663,0.001 0.57464,0.004 0.86954,0.011 0.32108,0.34451 0.64079,0.6904 0.95911,1.03215 0.30868,0.33762 0.61736,0.67523 0.92604,1.01286 0.008,0.32797 0.0138,0.65456 0.0248,0.98254 0.008,0.32797 0.0165,0.65594 0.0248,0.98392 -0.27147,0.007 -0.54295,0.0138 -0.80891,0.0262 -0.2632,0.0124 -0.51952,0.0289 -0.77445,0.0455 z m 6.80062,-6.05234 -1.21957,-1.16307 -1.21818,-1.16306 0.4327,-1.49655 0.43133,-1.49655 1.65227,-0.33349 1.65088,-0.33348 2.43913,2.32613 -0.86541,2.99309 -1.65089,0.33349 z m -6.26732,-2.00918 -0.97565,-1.04318 -0.97428,-1.0418 0.40652,-1.4056 0.40515,-1.40559 1.38079,-0.36105 1.3808,-0.36242 0.97427,1.04317 0.97427,1.0418 -0.40514,1.40422 -0.40652,1.4056 -1.37942,0.36242 z m -4.44417,-1.93477 -0.65733,-0.94396 -0.65595,-0.94257 0.34865,-1.20854 0.35002,-1.20992 1.00597,-0.26596 1.00597,-0.26734 0.65594,0.94258 0.65733,0.94395 -0.70005,2.41708 -1.00459,0.26734 z m 13.52957,-17.45423 -1.42075,0.2949 -1.42076,0.29628 -0.3762,1.30224 -0.37621,1.30363 2.08911,2.01469 2.84151,-0.5898 0.37621,-1.30362 0.3762,-1.30225 -1.04455,-1.00735 z m -5.39502,-0.50161 -1.03628,0.29215 -1.03491,0.29076 -0.31557,1.09003 -0.31419,1.09003 0.72071,0.79788 0.72072,0.79927 1.0349,-0.29215 1.03629,-0.29076 0.62838,-2.18006 -0.71933,-0.79788 z m 18.965935,4.42213 2.08911,2.01469 -0.37758,1.30362 -0.37621,1.30225 -1.42076,0.2949 -1.42075,0.29628 -1.04455,-1.00735 -1.04456,-1.00872 0.75241,-2.60449 1.42214,-0.29628 z m 4.83278,2.45291 0.72072,0.79926 0.71933,0.79788 -0.31419,1.09003 -0.31557,1.09003 -1.03491,0.29076 -1.0349,0.29215 -0.72072,-0.79926 -0.72071,-0.79789 0.31419,-1.09003 0.31557,-1.09002 1.03491,-0.29077 z m -11.5576,-4.62057 1.14515,1.09279 1.14652,1.09416 -0.40652,1.4056 -0.40652,1.40698 -1.55167,0.31419 -1.553045,0.31281 -1.14652,-1.09278 -1.14516,-1.09279 0.40653,-1.40697 0.40514,-1.40698 1.55305,-0.31281 z m 2.3344,5.72437 1.21818,1.16307 1.21956,1.16306 -0.43132,1.49655 -0.4327,1.49655 -1.65227,0.33349 -1.65089,0.33348 -1.219565,-1.16306 -1.21956,-1.16169 0.4327,-1.49793 0.43271,-1.49655 1.650885,-0.33348 z m 6.26731,2.00918 0.97565,1.04318 0.97428,1.04317 -0.40653,1.40422 -0.40514,1.4056 -1.38079,0.36105 -1.3808,0.36242 -0.97427,-1.04179 -0.97427,-1.04318 0.40514,-1.40422 0.40652,-1.4056 1.3808,-0.36242 z m 4.44418,1.93477 0.65732,0.94396 0.65595,0.94257 -0.34865,1.20992 -0.35002,1.20854 -1.00597,0.26596 -1.00597,0.26734 -0.65732,-0.94258 -0.65457,-0.94258 0.34864,-1.20991 0.35003,-1.20854 1.00459,-0.26734 z m -9.15845,-13.17405 c 0.37069,0.34176 0.74139,0.68351 1.12173,1.02802 0.38447,0.34589 0.77583,0.69315 1.17133,1.04042 -0.022,0.45889 -0.04,0.9164 -0.0579,1.37528 -0.0179,0.45889 -0.04,0.9164 -0.0579,1.37391 -0.45613,0.10059 -0.91088,0.19981 -1.37804,0.29765 -0.46991,0.0965 -0.94396,0.19155 -1.42489,0.28388 -0.42995,-0.35554 -0.85439,-0.71107 -1.27056,-1.06385 -0.41341,-0.35278 -0.81855,-0.70418 -1.22094,-1.0542 0.0854,-0.44097 0.17088,-0.88194 0.25632,-1.32429 0.0854,-0.44097 0.16812,-0.88332 0.25356,-1.32567 0.44786,-0.1006 0.89021,-0.20533 1.32842,-0.30868 0.43133,-0.10611 0.85852,-0.2136 1.27882,-0.32247 z m 4.64399,2.69131 c 0.31695,0.33211 0.64079,0.66697 0.96601,1.00459 0.32935,0.339 0.66421,0.68075 1.00321,1.02389 0.11024,0.37896 0.22462,0.75792 0.33624,1.13688 0.11162,0.37896 0.226,0.7593 0.33762,1.13688 -0.2508,0.0234 -0.50298,0.0455 -0.75654,0.0675 -0.26183,0.0179 -0.52366,0.0345 -0.78962,0.051 -0.35829,-0.35278 -0.71382,-0.70556 -1.06385,-1.0542 -0.35001,-0.35002 -0.69453,-0.69591 -1.03215,-1.03904 -0.0703,-0.35691 -0.14055,-0.71382 -0.20946,-1.07211 -0.0703,-0.35829 -0.14331,-0.71658 -0.21084,-1.0735 0.24254,-0.0276 0.48645,-0.0537 0.72485,-0.0827 0.23289,-0.0331 0.4644,-0.0661 0.69453,-0.0992 z M 98.114305,8.8058167 c -0.45888,0.0992 -0.93017,0.19568 -1.40284,0.29077 -0.48093,0.0937 -0.966,0.18603 -1.45659,0.27698 -0.16812,0.42168 -0.33624,0.8419803 -0.50574,1.2622803 -0.17087,0.42031 -0.34313,0.84061 -0.50987,1.26091 0.35967,0.339 0.72347,0.67937 1.09692,1.0225 0.37344,0.34176 0.75516,0.68627 1.14377,1.03215 0.52228,-0.0827 1.03904,-0.16674 1.55167,-0.25218 0.50574,-0.0868 1.00459,-0.17639 1.50344,-0.26596 0.0992,-0.43822 0.2067,-0.87367 0.31006,-1.31051 0.10335,-0.43684 0.206695,-0.87368 0.310055,-1.3119 -0.352775,-0.33761 -0.701425,-0.67248 -1.043175,-1.0073403 -0.33899,-0.33486 -0.66972,-0.66697 -0.9977,-0.9977 z m -5.34403,-0.0813 c -0.41479,0.12127 -0.83509,0.24254 -1.25264,0.36381 -0.42857,0.12126 -0.85714,0.24253 -1.28709,0.3638 -0.23288,0.27147 -0.45888,0.54432 -0.69177,0.8158003 -0.23151,0.27147 -0.46164,0.54294 -0.6904,0.8158 0.226,0.1502 0.46165,0.30179 0.70418,0.45337 0.24391,0.15159 0.48921,0.30179 0.74276,0.45475 0.45476,-0.12126 0.90951,-0.24253 1.3615,-0.36242 0.44098,-0.12127 0.88195,-0.24116 1.32292,-0.36242 0.18328,-0.27286 0.36105,-0.54571 0.54571,-0.81856 0.1819,-0.27285 0.36242,-0.5457003 0.54432,-0.8185503 -0.226,-0.15021 -0.45062,-0.30317 -0.66973,-0.45338 -0.21635,-0.15158 -0.42443,-0.30179 -0.62976,-0.452 z m 2.46118,8.9655203 -1.65089,0.33349 -1.65227,0.33348 -0.43133,1.49655 -0.4327,1.49655 2.43913,2.32613 3.30178,-0.66697 0.86541,-2.9931 z m -6.37343,-1.64262 -1.38079,0.36242 -1.37942,0.36243 -0.40652,1.40422 -0.40652,1.4056 0.97427,1.04179 0.97565,1.04318 1.3808,-0.36243 1.37941,-0.36242 0.40652,-1.40422 0.40515,-1.4056 -0.97428,-1.0418 -0.97427,-1.04317" id="path18"/>
    <path style="fill:#1a1a1a;fill-opacity:1;fill-rule:evenodd;stroke:none;stroke-width:0.35277775" d="m 115.8152,31.929297 c 1.69086,3.87918 2.2338,7.67705 1.30776,10.88374 -2.48874,8.61688 -14.64028,9.70553 -27.136325,2.43362 -12.49605,-7.27329 -20.609936,-20.15794 -18.1212,-28.77344 1.3615,-4.71427 5.61551,-7.1740603 11.23515,-7.2457203 -3.2632,0.7827203 -5.64721,2.7698603 -6.55257,5.9062703 -2.15939,7.47448 4.881,18.65312 15.72066,24.96316 10.841015,6.31004 21.384385,5.3647 23.543775,-2.10978 0.53054,-1.8383 0.50436,-3.89984 0.003,-6.05785" id="path20"/>
  </g>
</svg>