<?xml version="1.0" encoding="utf-8"?>
<svg viewBox="68.207 14.139 76.765 12.365" xmlns="http://www.w3.org/2000/svg">
  <g id="layer1">
    <path style="fill:#000000;fill-opacity:1;fill-rule:evenodd;stroke:none;stroke-width:0.35277775" d="m 69.773619,14.43376 h 1.841059 c 1.120345,0 1.954058,0.119892 2.498383,0.361047 0.542946,0.23978 0.982539,0.614606 1.316027,1.120345 0.333485,0.508497 0.500225,1.054198 0.500225,1.641242 0,0.491962 -0.118509,0.953604 -0.352778,1.387686 -0.235641,0.435459 -0.573264,0.80064 -1.016991,1.092782 1.052823,0.733118 1.576475,1.701878 1.576475,2.914552 0,0.628385 -0.16674,1.205784 -0.500228,1.726681 -0.332105,0.525036 -0.744139,0.910887 -1.234722,1.158932 -0.49058,0.248048 -1.201649,0.372071 -2.130446,0.372071 h -4.063834 z m 17.864886,0 h 6.394097 l -0.272853,2.090484 h -4.160297 l -0.33624,2.433616 h 4.176832 l -0.264583,2.07119 h -4.176832 l -0.418924,3.122637 H 92.7841 l -0.281121,2.057411 h -6.410632 z m -8.524544,0 h 6.395473 l -0.272849,2.090484 h -4.161677 l -0.334863,2.433616 h 4.176836 l -0.264584,2.07119 h -4.176835 l -0.418924,3.122637 h 4.204395 l -0.281118,2.057411 h -6.412012 z m -7.747331,4.674306 h 0.401009 c 0.599447,0 1.003212,-0.04272 1.216809,-0.130913 0.212217,-0.08682 0.395495,-0.250803 0.542946,-0.491959 0.150205,-0.239779 0.22462,-0.508497 0.22462,-0.80064 0,-0.272852 -0.06615,-0.508497 -0.199817,-0.704179 -0.133667,-0.197058 -0.30868,-0.330729 -0.525032,-0.399631 -0.214972,-0.07028 -0.655944,-0.106108 -1.316027,-0.106108 z m -0.655945,5.010548 1.328427,0.04961 c 0.668349,0 1.152042,-0.130912 1.457964,-0.39412 0.304546,-0.259069 0.45751,-0.617361 0.45751,-1.070733 0,-0.330729 -0.09646,-0.628386 -0.285256,-0.887459 -0.190168,-0.263204 -0.442348,-0.445107 -0.756542,-0.55535 -0.314191,-0.106108 -0.917773,-0.16123 -1.807986,-0.16674 l -0.394117,3.024794" id="path416"/>
    <path style="fill:#000000;fill-opacity:1;fill-rule:evenodd;stroke:none;stroke-width:0.35277775" d="m 106.81253,16.059847 -0.71245,0.983918 c -1.2485,-1.172711 -2.66926,-1.759754 -4.26503,-1.759754 -1.04042,0 -2.01331,0.253559 -2.917301,0.757922 -0.903994,0.509873 -1.610929,1.192001 -2.119426,2.050521 -0.511249,0.859895 -0.764807,1.783178 -0.764807,2.769855 0,0.87919 0.195677,1.660536 0.587041,2.344043 0.394121,0.682127 0.959115,1.218184 1.70188,1.606793 0.740002,0.384472 1.590254,0.578775 2.543853,0.578775 1.45797,0 2.81533,-0.461642 4.07486,-1.384928 l 0.65595,0.937066 c -0.93431,0.614606 -1.73633,1.026639 -2.40881,1.240236 -0.67248,0.212217 -1.44832,0.319705 -2.32889,0.319705 -1.627461,0 -2.954513,-0.4079 -3.979773,-1.223698 -1.360123,-1.092786 -2.040872,-2.552129 -2.040872,-4.376649 0,-1.885157 0.680749,-3.483681 2.040872,-4.794197 1.360125,-1.314648 3.053733,-1.970596 5.076693,-1.970596 0.92329,0 1.76113,0.144695 2.52181,0.436841 0.75516,0.289387 1.53514,0.785481 2.3344,1.484147 z M 138.2318,14.43376 h 2.95589 c 1.05006,0 1.80385,0.100598 2.25723,0.300412 0.45337,0.202572 0.81993,0.522276 1.1038,0.961873 0.28112,0.439593 0.42306,0.950845 0.42306,1.532378 0,0.633896 -0.16674,1.223698 -0.50023,1.768024 -0.3321,0.545701 -0.78686,0.9536 -1.36288,1.229208 -0.57602,0.275608 -1.33531,0.412034 -2.27376,0.412034 l 3.55258,5.571409 h -1.33531 l -3.54708,-5.571409 h -0.92879 l -0.7593,5.571409 h -1.18236 z m 1.03353,1.131369 -0.52779,3.919142 h 1.35185 c 1.00321,0 1.66192,-0.03996 1.9706,-0.119891 0.51538,-0.128157 0.93431,-0.378958 1.25126,-0.755163 0.3197,-0.374827 0.47818,-0.836468 0.47818,-1.380794 0,-0.613226 -0.22187,-1.059712 -0.66422,-1.33532 -0.34175,-0.219107 -0.95636,-0.327974 -1.84106,-0.327974 z m -8.56175,-1.131369 3.94394,11.775338 h -1.20716 l -1.28985,-3.850238 h -4.98436 l -2.19935,3.850238 h -1.31465 l 6.7772,-11.775338 z m -0.37759,2.468069 -2.51354,4.338062 h 3.97289 z m -6.77719,-2.468069 -0.1695,1.145152 h -5.29717 l -0.52228,3.857128 h 5.29993 l -0.15296,1.131368 h -5.29718 l -0.60082,4.513076 h 5.29718 l -0.13367,1.128614 h -6.49194 l 1.57647,-11.775338 z m -14.05323,0 h 1.18235 l -1.41524,10.671528 h 5.09047 l -0.13643,1.10381 h -6.27558 l 1.55443,-11.775338" id="path418"/>
  </g>
</svg>