<?xml version="1.0" encoding="UTF-8" standalone="no"?>
<svg
   xmlns:dc="http://purl.org/dc/elements/1.1/"
   xmlns:cc="http://creativecommons.org/ns#"
   xmlns:rdf="http://www.w3.org/1999/02/22-rdf-syntax-ns#"
   xmlns:svg="http://www.w3.org/2000/svg"
   xmlns="http://www.w3.org/2000/svg"
   xmlns:sodipodi="http://sodipodi.sourceforge.net/DTD/sodipodi-0.dtd"
   xmlns:inkscape="http://www.inkscape.org/namespaces/inkscape"
   width="1000px"
   height="1000px"
   viewBox="0 0 1000 1000"
   version="1.1"
   id="svg88"
   sodipodi:docname="BeeClear_App_Logo_Icon.svg"
   inkscape:version="0.92.5 (2060ec1f9f, 2020-04-08)">
  <metadata
     id="metadata94">
    <rdf:RDF>
      <cc:Work
         rdf:about="">
        <dc:format>image/svg+xml</dc:format>
        <dc:type
           rdf:resource="http://purl.org/dc/dcmitype/StillImage" />
        <dc:title>logo</dc:title>
      </cc:Work>
    </rdf:RDF>
  </metadata>
  <defs
     id="defs92" />
  <sodipodi:namedview
     pagecolor="#ffffff"
     bordercolor="#666666"
     borderopacity="1"
     objecttolerance="10"
     gridtolerance="10"
     guidetolerance="10"
     inkscape:pageopacity="0"
     inkscape:pageshadow="2"
     inkscape:window-width="1848"
     inkscape:window-height="1016"
     id="namedview90"
     showgrid="false"
     inkscape:zoom="0.3337544"
     inkscape:cx="1886.4746"
     inkscape:cy="708.44662"
     inkscape:window-x="72"
     inkscape:window-y="27"
     inkscape:window-maximized="1"
     inkscape:current-layer="svg88" />
  <!-- Generator: Sketch 52.5 (67469) - http://www.bohemiancoding.com/sketch -->
  <title
     id="title74">logo</title>
  <desc
     id="desc76">Created with Sketch.</desc>
  <path
     inkscape:connector-curvature="0"
     style="fill:#000000;fill-opacity:1;fill-rule:evenodd;stroke:none;stroke-width:11.30428505"
     d="m 185.54729,11.045292 h 47.69623 c 29.02467,0 50.62363,4.751741 64.72539,14.309761 14.06609,9.5034 25.45462,24.359294 34.09423,44.403692 8.63963,20.153785 12.95936,41.782075 12.95936,65.048975 0,19.49835 -3.07024,37.7951 -9.13947,54.99955 -6.10473,17.25898 -14.85147,31.73256 -26.34705,43.31132 27.27535,29.05638 40.84164,67.45216 40.84164,115.51532 0,24.9054 -4.31975,47.78999 -12.95943,68.43526 -8.60382,20.8092 -19.27833,36.10207 -31.98781,45.93304 -12.70942,9.83119 -31.13108,14.74664 -55.19335,14.74664 H 144.95557 Z m 462.82448,0 h 165.6515 l -7.0688,82.854198 H 699.17396 l -8.71098,96.45393 H 798.6719 l -6.85455,82.08951 H 683.60843 l -10.85307,123.76253 h 108.92301 l -7.28296,81.54339 H 608.3156 Z m -220.84483,0 H 593.21405 L 586.14538,93.89949 H 478.32909 l -8.6753,96.45393 h 108.20902 l -6.85453,82.08951 H 462.79924 l -10.85297,123.76253 h 108.923 l -7.28297,81.54339 H 387.47073 Z M 226.8173,196.30669 h 10.38899 c 15.52976,0 25.99009,-1.69316 31.52375,-5.1886 5.49787,-3.44103 10.24603,-9.94036 14.06606,-19.49829 3.89135,-9.50347 5.81927,-20.15377 5.81927,-31.73264 0,-10.81419 -1.71377,-20.15368 -5.17671,-27.90939 -3.46286,-7.81022 -7.99691,-13.10809 -13.60197,-15.839 -5.56921,-2.78541 -16.99351,-4.20539 -34.09422,-4.20539 z m -16.99347,198.58796 34.41549,1.9662 c 17.31485,0 29.84584,-5.18849 37.77133,-15.62046 7.88984,-10.26795 11.85266,-24.46857 11.85266,-42.43748 0,-13.1081 -2.49894,-24.9054 -7.39007,-35.17347 -4.92665,-10.43186 -11.45992,-17.64142 -19.5997,-22.01074 -8.13969,-4.20548 -23.77666,-6.39025 -46.83935,-6.60857 l -10.21036,119.88463"
     id="path416" />
  <path
     inkscape:connector-curvature="0"
     style="fill:#000000;fill-opacity:1;fill-rule:evenodd;stroke:none;stroke-width:8.44391346"
     d="m 299.80266,579.8751 -10.03711,40.01185 c -17.5891,-47.68931 -37.60502,-71.56186 -60.08654,-71.56186 -14.65763,0 -28.36388,10.31116 -41.09947,30.82148 -12.73564,20.73446 -22.69505,48.47378 -29.85887,83.38625 -7.20256,34.96842 -10.77473,72.51448 -10.77473,112.63867 0,35.75299 2.75675,67.52713 8.27033,95.32251 5.55246,27.73932 13.51219,49.53852 23.97641,65.34168 10.42529,15.63486 22.40378,23.53642 35.83827,23.53642 20.54014,0 39.66288,-18.77309 57.40735,-56.31938 l 9.24117,38.10666 c -13.16275,24.99348 -24.46172,41.74917 -33.93576,50.43531 -9.47403,8.63001 -20.40421,13.00101 -32.80985,13.00101 -22.92794,0 -41.62371,-16.58758 -56.06776,-49.76272 -19.16165,-44.43904 -28.75217,-103.78453 -28.75217,-177.98033 0,-76.66155 9.59052,-141.66686 28.75217,-194.96025 19.1617,-53.46122 43.02156,-80.13599 71.52138,-80.13599 13.00748,0 24.81112,5.88415 35.52772,17.7646 10.63883,11.7681 21.62734,31.9422 32.88746,60.35409 z m 442.6404,-66.12625 h 41.64313 c 14.79343,0 25.41297,4.09088 31.80026,12.21646 6.3872,8.23782 11.55134,21.23884 15.55056,39.11546 3.96048,17.87639 5.96014,38.667 5.96014,62.31546 0,25.77797 -2.34908,49.76287 -7.04733,71.8983 -4.67867,22.19138 -11.08541,38.77901 -19.20049,49.98686 -8.11511,11.20776 -18.81209,16.75568 -32.03314,16.75568 l 50.04937,226.56624 H 810.35347 L 760.38156,766.03707 h -13.08495 l -10.69717,226.56624 h -16.6573 z m 14.5606,46.0081 -7.43562,159.37531 h 19.04509 c 14.13342,0 23.41346,-1.625 27.76219,-4.87545 7.26075,-5.21159 13.16273,-15.41064 17.62796,-30.70938 4.50401,-15.24266 6.73671,-34.01567 6.73671,-56.1512 0,-24.93733 -3.12577,-43.09413 -9.35765,-54.30188 -4.81462,-8.91018 -13.4734,-13.3374 -25.9372,-13.3374 z M 636.38415,513.74885 691.9471,992.60331 H 674.94038 L 656.76876,836.02999 h -70.22059 l -30.98482,156.57332 h -18.52106 l 95.47846,-478.85446 z m -5.31957,100.36617 -35.4112,176.41115 h 55.97082 z m -95.47828,-100.36617 -2.38795,46.56858 h -74.62749 l -7.35798,156.85349 h 74.66638 l -2.15493,46.00813 h -74.62765 l -8.46444,183.52823 h 74.62765 l -1.88318,45.89603 h -91.45965 l 22.20959,-478.85446 z m -197.98447,0 h 16.65715 L 334.32081,947.7159 h 71.71549 l -1.92207,44.88741 h -88.41149 l 21.89909,-478.85446"
     id="path418" />
</svg>
